#!OML:ASF E:\Steps\Project 1\Capture day 1\Session 2\Subject.ASF
:FULLY-SPECIFIED
:DEGREES
1
root 8.93422 16.2652 31.3451 -160.475 -1.69256 178.526
lowerback -27.1768 -1.93256 -6.84824
upperback -0.157592 -0.71766 -0.734315
thorax 14.3899 -0.952145 2.63507
lowerneck -0.445794 -0.549132 -3.86662
upperneck 9.44326 -1.49971 5.7626
head 3.22147 -0.855616 2.5348
rclavicle 3.03147e-015 2.42517e-014
rhumerus -27.3231 -9.11492 -85.9657
rradius 38.4955
rwrist -2.1137
rhand -7.40389 -57.3536
rfingers 7.12502
rthumb 18.4823 -86.4956
lclavicle 3.03147e-015 2.42517e-014
lhumerus -25.1405 -3.01944 86.5574
lradius 37.1896
lwrist -0.285786
lhand -20.5002 -10.5118
lfingers 7.12502
lthumb 5.85693 19.3872
rfemur -17.7027 7.85747 19.316
rtibia 9.34691
rfoot -26.7362 -8.24771
rtoes -11.3584
lfemur -18.9092 -9.03685 -21.5715
ltibia 9.46435
lfoot -8.49012 0.318705
ltoes -30.871
2
root 8.93303 16.2652 31.3533 -160.385 -1.70067 178.595
lowerback -27.1604 -1.93705 -6.75156
upperback -0.256762 -0.776559 -0.688786
thorax 14.273 -0.972195 2.61003
lowerneck -0.388953 -0.521959 -3.91144
upperneck 9.48051 -1.46363 5.71001
head 3.2212 -0.843126 2.5263
rclavicle 4.77083e-015 -1.66979e-014
rhumerus -27.3436 -7.79157 -86.572
rradius 39.1984
rwrist -5.07103
rhand -11.2107 -60.403
rfingers 7.12502
rthumb 14.8175 -89.8533
lclavicle 4.77083e-015 -1.66979e-014
lhumerus -25.3354 -3.15462 86.683
lradius 37.7438
lwrist -0.288223
lhand -20.5807 -11.0325
lfingers 7.12502
lthumb 5.77919 18.8687
rfemur -17.9214 8.01564 19.3523
rtibia 9.49016
rfoot -26.8395 -8.37578
rtoes -11.3274
lfemur -19.0889 -9.25899 -21.426
ltibia 9.52147
lfoot -8.7152 0.683914
ltoes -32.1696
3
root 8.93493 16.2628 31.3573 -160.32 -1.66526 178.626
lowerback -27.2049 -1.91036 -6.73876
upperback -0.297901 -0.750764 -0.683744
thorax 14.244 -0.960874 2.6171
lowerneck -0.415471 -0.540817 -3.84717
upperneck 9.51753 -1.48729 5.64468
head 3.23806 -0.854485 2.49188
rclavicle 1.21259e-014 7.55382e-015
rhumerus -27.3324 -7.64416 -86.6138
rradius 39.4224
rwrist -5.08143
rhand -10.607 -58.9013
rfingers 7.12502
rthumb 15.3991 -88.3078
lclavicle 1.21259e-014 7.55382e-015
lhumerus -25.4302 -3.43812 86.7833
lradius 38.2452
lwrist -0.243092
lhand -20.631 -10.6916
lfingers 7.12502
lthumb 5.73066 19.2109
rfemur -18.0536 8.02689 19.3772
rtibia 9.53792
rfoot -26.7937 -8.34362
rtoes -11.154
lfemur -19.2048 -9.17536 -21.3743
ltibia 9.56903
lfoot -8.73069 0.745173
ltoes -32.5872
4
root 8.93771 16.2589 31.3612 -160.205 -1.60726 178.642
lowerback -27.3439 -1.87461 -6.73208
upperback -0.312745 -0.699401 -0.700293
thorax 14.2876 -0.940408 2.61162
lowerneck -0.462737 -0.567074 -3.79161
upperneck 9.54231 -1.51927 5.59566
head 3.25554 -0.868796 2.4644
rclavicle 2.03754e-015 3.57812e-015
rhumerus -27.2803 -7.59094 -86.6663
rradius 39.6291
rwrist -5.15622
rhand -10.0409 -57.5057
rfingers 7.12502
rthumb 15.9442 -86.8694
lclavicle 2.03754e-015 3.57812e-015
lhumerus -25.428 -3.64057 86.83
lradius 38.6235
lwrist -0.274913
lhand -20.3759 -11.0407
lfingers 7.12502
lthumb 5.97695 18.855
rfemur -18.2332 7.93247 19.3865
rtibia 9.57821
rfoot -26.2796 -8.27607
rtoes -12.5543
lfemur -19.4125 -9.13677 -21.3379
ltibia 9.70999
lfoot -8.78297 0.779544
ltoes -32.9647
5
root 8.94044 16.2562 31.3692 -160.056 -1.61404 178.55
lowerback -27.4178 -1.90098 -6.84016
upperback -0.35594 -0.703152 -0.716955
thorax 14.2721 -0.951464 2.64849
lowerneck -0.467575 -0.579165 -3.78317
upperneck 9.56177 -1.53299 5.55273
head 3.26299 -0.876584 2.448
rclavicle -1.3418e-015 4.53229e-014
rhumerus -27.2704 -7.47571 -86.7002
rradius 39.8471
rwrist -5.31247
rhand -9.48704 -56.1286
rfingers 7.12502
rthumb 16.4776 -85.4489
lclavicle -1.3418e-015 4.53229e-014
lhumerus -24.8828 -4.17916 86.9325
lradius 37.9506
lwrist 0.0422865
lhand -20.5528 -12.0192
lfingers 7.12502
lthumb 5.8061 17.8813
rfemur -18.4638 7.78584 19.2672
rtibia 9.64173
rfoot -24.2839 -8.37319
rtoes -17.2463
lfemur -19.709 -9.35732 -21.3758
ltibia 9.93739
lfoot -8.99654 0.882542
ltoes -32.926
6
root 8.94488 16.2561 31.3816 -159.919 -1.6704 178.533
lowerback -27.3523 -1.92143 -6.92317
upperback -0.46343 -0.730315 -0.689749
thorax 14.1187 -0.968464 2.71361
lowerneck -0.436582 -0.597477 -3.77284
upperneck 9.59381 -1.55903 5.50672
head 3.26857 -0.892054 2.42982
rclavicle -2.18663e-015 2.34566e-014
rhumerus -27.3712 -7.38268 -86.6851
rradius 40.0302
rwrist -5.45362
rhand -8.93036 -54.7115
rfingers 7.12502
rthumb 17.0135 -83.9864
lclavicle -2.18663e-015 2.34566e-014
lhumerus -23.4796 -5.63459 87.1828
lradius 35.5251
lwrist 1.21919
lhand -21.5178 -12.7902
lfingers 7.12502
lthumb 4.8744 17.1337
rfemur -18.7274 7.89321 19.2284
rtibia 9.76377
rfoot -20.9574 -8.79788
rtoes -24.095
lfemur -20.0018 -9.64106 -21.2676
ltibia 10.1204
lfoot -9.15162 1.08887
ltoes -32.308
7
root 8.94844 16.2565 31.3925 -159.786 -1.72191 178.622
lowerback -27.3865 -1.88897 -6.84592
upperback -0.509936 -0.71778 -0.688536
thorax 14.0798 -0.958232 2.67688
lowerneck -0.426058 -0.63197 -3.69695
upperneck 9.60339 -1.60575 5.4589
head 3.27028 -0.914528 2.39814
rclavicle 8.24956e-015 -6.75868e-015
rhumerus -27.3743 -7.47158 -86.7045
rradius 40.0581
rwrist -5.40536
rhand -7.7967 -51.1331
rfingers 7.12502
rthumb 18.1044 -80.3105
lclavicle 8.24956e-015 -6.75868e-015
lhumerus -23.5261 -6.01312 87.2443
lradius 35.7625
lwrist 1.36265
lhand -21.565 -12.6166
lfingers 7.12502
lthumb 4.82877 17.3084
rfemur -18.9883 8.07353 19.3083
rtibia 9.90428
rfoot -20.9215 -9.03609
rtoes -24.4573
lfemur -20.329 -9.86123 -21.0404
ltibia 10.3354
lfoot -9.1907 1.27814
ltoes -31.8988
8
root 8.95069 16.255 31.4005 -159.65 -1.76868 178.687
lowerback -27.5209 -1.88889 -6.74931
upperback -0.490076 -0.736246 -0.693975
thorax 14.1683 -0.963024 2.60881
lowerneck -0.503172 -0.644938 -3.67855
upperneck 9.62658 -1.61595 5.41304
head 3.29227 -0.918088 2.37937
rclavicle 5.31749e-015 -7.95139e-016
rhumerus -27.2546 -7.45952 -86.7552
rradius 39.9925
rwrist -5.39333
rhand -7.90766 -49.7302
rfingers 7.12502
rthumb 17.9977 -78.9175
lclavicle 5.31749e-015 -7.95139e-016
lhumerus -23.4649 -6.15474 87.2174
lradius 35.9183
lwrist 1.35396
lhand -21.4983 -12.7797
lfingers 7.12502
lthumb 4.89325 17.1438
rfemur -19.229 8.06551 19.3717
rtibia 10.0152
rfoot -20.9111 -9.03723
rtoes -24.3434
lfemur -20.6605 -10.0275 -20.8721
ltibia 10.5763
lfoot -9.27679 1.39176
ltoes -31.8006
9
root 8.94973 16.2513 31.4052 -159.537 -1.80088 178.718
lowerback -27.6276 -1.89127 -6.68512
upperback -0.524753 -0.762192 -0.674764
thorax 14.1813 -0.973339 2.58256
lowerneck -0.476756 -0.635312 -3.67125
upperneck 9.63879 -1.6007 5.36083
head 3.28953 -0.912667 2.36069
rclavicle 1.49089e-016 4.53229e-014
rhumerus -27.2369 -7.41806 -86.7304
rradius 39.9229
rwrist -5.4403
rhand -7.74317 -49.4152
rfingers 7.12502
rthumb 18.1559 -78.5878
lclavicle 1.49089e-016 4.53229e-014
lhumerus -23.5798 -6.32391 87.2708
lradius 36.0984
lwrist 1.3945
lhand -21.4207 -13.0554
lfingers 7.12502
lthumb 4.96818 16.8663
rfemur -19.415 7.93143 19.4134
rtibia 10.0917
rfoot -20.9054 -8.95976
rtoes -23.9169
lfemur -20.8841 -10.1928 -20.7815
ltibia 10.7249
lfoot -9.38684 1.49516
ltoes -31.2238
10
root 8.94857 16.2473 31.4082 -159.456 -1.77223 178.683
lowerback -27.7139 -1.88492 -6.7122
upperback -0.574435 -0.751068 -0.668247
thorax 14.1631 -0.972759 2.60624
lowerneck -0.406566 -0.627384 -3.64573
upperneck 9.64755 -1.59117 5.30581
head 3.27727 -0.910932 2.33731
rclavicle -4.17448e-015 2.78299e-014
rhumerus -27.3205 -7.45453 -86.6578
rradius 39.8589
rwrist -5.39618
rhand -7.50884 -49.8784
rfingers 7.12502
rthumb 18.3814 -79.03
lclavicle -4.17448e-015 2.78299e-014
lhumerus -23.751 -6.54421 87.3858
lradius 36.2108
lwrist 1.49242
lhand -21.4544 -13.2276
lfingers 7.12502
lthumb 4.93558 16.6949
rfemur -19.5295 7.7891 19.3805
rtibia 10.1257
rfoot -20.9421 -8.88714
rtoes -24.02
lfemur -21.0028 -10.1957 -20.8397
ltibia 10.788
lfoot -9.34237 1.5563
ltoes -31.1719
